<?xml version="1.0" encoding="UTF-8"?>
<svg width="32" height="32" viewBox="0 0 32 32" fill="none" xmlns="http://www.w3.org/2000/svg">
  <!-- Background Circle -->
  <circle cx="16" cy="16" r="16" fill="#0a0a0a"/>
  
  <!-- Gold Gradient -->
  <defs>
    <linearGradient id="goldGradient" x1="0" y1="0" x2="32" y2="32" gradientUnits="userSpaceOnUse">
      <stop offset="0%" stop-color="#FFD700"/>
      <stop offset="100%" stop-color="#FFA500"/>
    </linearGradient>
  </defs>
  
  <!-- "40" Text -->
  <text x="16" y="22" font-family="serif" font-size="18" font-weight="bold" fill="url(#goldGradient)" text-anchor="middle">
    40
  </text>
  
  <!-- Decorative Hearts -->
  <path d="M8 12C8 10 9 9 10 9C11 9 12 10 12 11C12 10 13 9 14 9C15 9 16 10 16 12C16 14 12 16 12 16C12 16 8 14 8 12Z" fill="url(#goldGradient)" opacity="0.3"/>
  <path d="M24 12C24 10 23 9 22 9C21 9 20 10 20 11C20 10 19 9 18 9C17 9 16 10 16 12C16 14 20 16 20 16C20 16 24 14 24 12Z" fill="url(#goldGradient)" opacity="0.3"/>
</svg> 